<svg xmlns="http://www.w3.org/2000/svg" version="1.1" xmlns:xlink="http://www.w3.org/1999/xlink" width="512" height="512"><svg id="SvgjsSvg1007" xmlns="http://www.w3.org/2000/svg" version="1.1" viewBox="0 0 512 512">
  <!-- Generator: Adobe Illustrator 29.7.1, SVG Export Plug-In . SVG Version: 2.1.1 Build 8)  -->
  <defs>
    <style>
      .st0 {
        fill: #ffcf01;
      }
    </style>
  </defs>
  <rect class="st0" width="512" height="512"></rect>
  <g>
    <path d="M170.46,69.94c92.55,0,106.86,12.17,117.59,18.26,48.55,27.45,58.31,104.89,13.92,139.43-12.39,9.63-37.3,21.8-37.3,21.8,0,0,80.95,12.56,80.95,91.37s-79.68,101.26-113.78,101.26H54.53V69.94h115.92ZM137.71,218.79h67.86c23.25,0,42.07-19.7,41.81-39.4-.26-19.7-20.44-39.4-47.32-39.4h-62.34v78.8ZM137.71,372.01h82.92c27.89,0,46.1-20.79,44.96-41.59s-18.21-41.59-53.89-41.59h-73.99v83.18Z"></path>
    <rect x="369.74" y="69.94" width="87.73" height="372.11"></rect>
  </g>
</svg><style>@media (prefers-color-scheme: light) { :root { filter: none; } }
@media (prefers-color-scheme: dark) { :root { filter: none; } }
</style></svg>