<?xml version="1.0" encoding="UTF-8"?>
<svg id="Layer_2" xmlns="http://www.w3.org/2000/svg" version="1.1" viewBox="0 0 373.96 132.58">
  <!-- Generator: Adobe Illustrator 29.7.1, SVG Export Plug-In . SVG Version: 2.1.1 Build 8)  -->
  <defs>
    <style>
      .st0 {
        fill: #fff;
      }
    </style>
  </defs>
  <path class="st0" d="M207.24,98.27v-31.81h-7.19v-5.21h20.78v5.21h-7.19v31.81h-6.4ZM244.83,98.43c-9.87,0-10.53-6.02-10.53-9.83v-17.06c0-5.03,1.75-10.46,10.53-10.46s10.48,5.24,10.48,10.46v17.06c0,3.34-.61,9.83-10.48,9.83ZM244.84,93.67c3.64,0,3.89-3.33,3.89-4.2v-19.47c0-.85-.39-4.2-3.89-4.2s-3.98,3.33-3.98,4.2v19.47c0,.86.34,4.2,3.98,4.2ZM286.31,98.27v-37.02h18.34v5.22h-11.95v10.2h9.63v5.37h-9.63v11.11h11.95v5.12h-18.34ZM307.94,98.27v-37.02h18.34v5.22h-11.95v10.2h9.63v5.37h-9.63v11.11h11.95v5.12h-18.34ZM329.48,98.27v-36.89h8.84c9.12,0,11.52,4.23,11.52,8.59v3.57c0,1.25-.23,5.59-3.84,7.11-.52.22-.68.92-.57,1.52l5.08,16.1h-6.3l-4.7-15.39h-3.66v15.39h-6.37,0ZM335.86,77.82s-1.41,0,2.71,0,4.92-1.35,4.92-3.55v-4.56c0-1.68-1.06-3.39-4.95-3.39h-2.68v11.49h0ZM145.54,53.89c-3.24,0-5.98-.54-8.22-1.63s-3.97-2.65-5.18-4.69c-1.21-2.04-1.86-5.11-1.94-7.95l9.09-.72c-.38,3.93.68,7.81,6.19,7.81,3.92,0,6.23-1.85,6.23-5.11s-1.79-5.76-8.08-11.13c-4.28-3.66-12.83-9.45-12.83-17.38C130.8,5.96,135.27,0,145.25,0,157.03,0,159.6,7.72,159.6,14.18c-1.81,0-9.11.36-9.11.36,0,0,1.01-7.49-5.11-7.49-3.66,0-5.57,2.67-5.57,5.11,0,4.67,6.44,9.33,10.57,13.31s10.38,8.11,10.38,14.79c0,2.96-.61,5.13-1.84,7.2-1.23,2.06-2.99,3.65-5.28,4.76s-5,1.67-8.11,1.67h.01ZM363.01,98.82c-2.27,0-4.2-.38-5.77-1.14s-2.78-1.86-3.63-3.29-1.3-3.59-1.36-5.57l6.38-.5c-.27,2.76.48,5.48,4.34,5.48,2.75,0,4.37-1.3,4.37-3.58s-1.26-4.04-5.67-7.81c-3-2.56-9-6.63-9-12.2,0-5,3.14-9.19,10.14-9.19,8.26,0,10.07,5.42,10.07,9.95-1.27,0-6.39.25-6.39.25,0,0,.71-5.26-3.58-5.26-2.57,0-3.9,1.87-3.9,3.58,0,3.27,4.52,6.55,7.41,9.34,2.9,2.8,7.28,5.69,7.28,10.38,0,2.08-.43,3.6-1.29,5.05-.86,1.45-2.09,2.56-3.7,3.34-1.61.78-3.5,1.17-5.69,1.17h-.01ZM179.02,53.89c-2.91,0-14.5-1.46-14.5-12.03V.39h9.29v39.07c0,2.85-.43,7.34,5.21,7.34s5.57-4.18,5.57-7.34V.39h9.29v41.48c0,10.6-11.9,12.03-14.86,12.03h0ZM163.99,98.82c-2.05,0-10.25-1.03-10.25-8.5v-29.31h6.57v27.61c0,2.02-.3,5.19,3.68,5.19s3.93-2.95,3.93-5.19v-27.61h6.56v29.31c0,7.49-8.41,8.5-10.5,8.5h.01ZM199.61,53.23V.39h9.46v45.6h17.12v7.24s-26.58,0-26.58,0ZM229.17,53.23V.39h9.46v45.6h17.12v7.24s-26.58,0-26.58,0ZM258.93,53.23V.39h9.29v52.84h-9.29ZM223.59,98.43v-37.19h6.54v37.19h-6.54ZM281.86,53.23L271.32.39h9.77l6.74,40.86h.84L295.36.39h9.72l-10.51,52.84h-12.71ZM327.01,53.23h9.51L326.14.39h-12.85l-10.28,52.84h9.56l1.92-11.59h10.62l1.92,11.59h-.02ZM315.77,34.1l3.64-21.06h.74l3.64,21.06h-8.02ZM144.94,98.3h6.72l-7.34-37.34h-9.09l-7.27,37.34h6.75l1.35-8.19h7.5l1.36,8.19h.02,0ZM136.99,84.78l2.57-14.88h.53l2.57,14.88h-5.67ZM362.36.39l.28,29.99.46,5.29-1.01-1.18L350.09.38h-10.45v52.84h9.36l-.16-32.57.81-.06,12.01,32.63h10.01V.39h-9.31ZM275.05,61.28l.19,21.02.32,3.71-.7-.83-8.24-23.9h-7.18v37.03h6.43l-.11-22.82.56-.04,8.25,22.87h6.87v-37.03h-6.39ZM192.23,84.84v4.63c0,.86-.24,4.2-3.81,4.2s-3.9-3.33-3.9-4.2v-19.47c0-.86.47-4.2,3.9-4.2s3.81,3.35,3.81,4.2v3.93h6.45v-2.39c0-5.22-1.67-10.46-10.27-10.46s-10.31,5.43-10.31,10.46v17.06c0,3.8.65,9.83,10.31,9.83s10.27-6.49,10.27-9.83v-3.77h-6.45ZM254.93,125.46h-4.65v-8.16c0-1.2-.8-2.4-2.33-2.4-1.37,0-2.33,1.02-2.33,2.12v8.45h-4.65v-14.2h4.41l.04,1.95s1.28-2.18,4.4-2.18c4.3,0,5.11,3.76,5.11,5.01v9.42h0ZM235.43,111.29h-5.56l-4.28,4.28v5.81l4.04,4.04h6.05l4.04-4.04.04-5.6-4.32-4.49h0ZM232.66,121.89c-1.91,0-3.46-1.55-3.46-3.46s1.55-3.46,3.46-3.46,3.46,1.55,3.46,3.46-1.55,3.46-3.46,3.46ZM210.62,104.65v20.81h4.9v-20.81h-4.9ZM216.98,111.38v14.08h4.65v-7.58c0-2.29,2.38-3.6,3.68-3.56,1.38-1.39,2.46-2.55,2.77-2.89-2.34-.96-4.67-.75-6.45,1.04v-1.13l-4.65.02v.02ZM101.47,110.85v-12.35c0-1.09.7-2.01,1.69-2.35v-1.37c-.59-.7-.9-1.54-.9-2.45,0-1.11.09-2.08.24-2.95-.72-1.16-1.5-2.16-2.25-2.83-4.99-4.43-10.57-4.83-24.2-10.02-.48-.19-2.21-.76-2.21-1.81,0-2.04,2.16-1.63,3.1-3.38.63-1.17,1.24-8.73,1.54-11.35.35-3.07,1.5-1.79,1.98-5.04.32-2.22.66-7.49,1.72-9.47,1.14-2.08,2.91-3.05,4.39-4.64,2.07-2.21,5.8-7.43,6.61-10.26.68-2.38,1.28-6.8.72-9.17-.34-1.39-2.15-1.22-3.63-.17-2.07,1.47-4.26,3.13-6.18,4.74-.63.53-2.89,3.25-3.56,3.1-.37-.24-.34-.44-.37-.82-.23-2.85-.59-5.74-.93-8.56-.32-2.73-.57-3.04-2.14-5.23-1.13-1.57-1.89-2.53-2.73-4.39-1.01-2.22-2.44-7.43-4.47-8.59-1.54-.89-2.85-.54-4.38.24-1.19.62-4.17,3.38-6.59,3.38-2.56,0-4.27-2.52-4.65-2.97-.59-.69-.7-1.57-1.81-1.75-1.21-.19-3.13,2.26-4.01,3.05-1.16,1.06-2.61,1.97-3.56,3.33-1.37,1.94-1.57,4.33-2.63,6.17-1.06,1.82-3.99,4.26-4.52,6.17-.34,1.19-.13,2.83-.59,4.04-.27.28-3.61-1.11-4.26-1.31-2.76-.81-4.37-1.08-7.21-.29-4.34,1.2-6.8,4.99-7.3,9.34-.54,4.71,1.33,7.98,5.23,11.14,3.4,2.76,11.64,5.23,11.64,5.23,0,0-.13,4.18.29,6.37,1.1,5.86,4.98,10.31,2.52,16.62-.85,2.17-2.85,7.03-10.87,12.17-6.82,4.37-14.3,8.21-20.33,13.65-1.28,1.15-2.73,2.41-3.65,3.95-2.33,3.95-2.13,8.16-2.43,12.54-.25,3.69-.54,7.46-.72,11.16-.04.91-.12,2.5,0,3.34.03.22.18.53.37.59h102.76v-14.44c-.98-.32-1.69-1.26-1.69-2.35h-.03ZM123.9,99.29l-20.88-30.61c.09-.44.15-.89.15-1.36,0-3.58-2.91-6.5-6.5-6.5s-6.5,2.91-6.5,6.5,2.73,6.3,6.17,6.48l9.76,11.35c-1.07.96-2.35,2.99-2.35,7.21,0,.75.35,1.39.9,1.85v3.33h-.69c-.54,0-.99.44-.99.99v12.34c0,.54.44.99.99.99h.69v15.8h4.27v-1.29c1.97-1.2,5.59-3.24,9.84-5.01,5.48-2.26,8.04-5.05,8.84-8.66.82-3.73.37-8.27-3.69-13.41h-.02s.01,0,0,0ZM125.18,112.17c-.66,2.94-2.35,5.34-7.18,7.34-3.74,1.54-6.96,3.28-9.08,4.52v-12.19h.63c.54,0,.99-.44.99-.99v-12.34c0-.54-.44-.99-.99-.99h-.63v-3.18c.23-.18.43-.38.6-.65.72-1.09,1.51-1.69,2.18-2.04l8.81,10.24c3.76,4.1,5.35,7.22,4.68,10.28h0ZM176.22,104.65c5.17,0,5.98.68,6.57,1.02,2.72,1.54,3.26,5.87.78,7.8-.69.54-2.08,1.22-2.08,1.22,0,0,4.53.7,4.53,5.11s-4.46,5.66-6.36,5.66h-9.91v-20.81h6.48,0ZM174.39,112.97h3.79c1.3,0,2.35-1.1,2.34-2.2s-1.14-2.2-2.65-2.2h-3.49v4.41h.01ZM174.39,121.54h4.64c1.56,0,2.58-1.16,2.51-2.33s-1.02-2.33-3.01-2.33h-4.14v4.65h0ZM187.36,111.26v14.2h4.41v-14.2h-4.41ZM189.64,104.08c-1.43,0-2.59,1.16-2.59,2.59s1.16,2.59,2.59,2.59,2.59-1.16,2.59-2.59-1.16-2.59-2.59-2.59ZM208.41,124.6v-13.59h-3.92v1.96c-3.44-3.64-9.2-2.63-10.96,2.13-1.13,3.07-.64,7.03,2.02,9.13,2.46,1.94,6.16,2.02,8.45-.25.42,3.3-1.44,4.68-3.79,4.68-3.33,0-4.72-1.81-4.72-1.81l-2.51,3.62s1.61,2.11,7.02,2.11c8.52,0,8.4-5.98,8.4-7.99h0ZM200.88,121.8c-1.96,0-3.56-1.59-3.56-3.56s1.59-3.56,3.56-3.56,3.56,1.59,3.56,3.56-1.59,3.56-3.56,3.56ZM268.29,120.68c-.03.55-.25,1-.68,1.38-.44.39-.98.57-1.66.57-.89,0-1.55-.31-2.02-.94-.49-.67-.74-1.73-.74-3.16v-.51c0-1.41.26-2.46.76-3.12.47-.62,1.12-.93,2-.93.68,0,1.21.21,1.64.64.44.44.66.99.69,1.69l.02.48h4.01l-.02-.52c-.06-1.74-.68-3.17-1.84-4.25-1.16-1.07-2.67-1.62-4.49-1.62-2.14,0-3.87.71-5.12,2.13-1.24,1.39-1.87,3.26-1.87,5.55v.33c0,2.39.63,4.31,1.88,5.69,1.26,1.39,2.98,2.1,5.12,2.1,1.1,0,2.14-.24,3.1-.73.96-.49,1.73-1.16,2.3-1.99.57-.84.88-1.77.92-2.74l.02-.52h-4.01l-.02.47h0ZM285.96,112.41c-1.29-1.33-2.99-2.01-5.05-2.01-1.39,0-2.64.33-3.71.97-1.08.65-1.93,1.59-2.52,2.79-.59,1.19-.88,2.53-.88,4v.16c0,2.35.65,4.26,1.94,5.69,1.3,1.44,3.05,2.18,5.2,2.18,1.41,0,2.67-.33,3.75-.98,1.09-.65,1.93-1.59,2.51-2.78.57-1.17.86-2.51.86-4v-.77c-.12-2.16-.82-3.93-2.1-5.26h0ZM280.94,122.63c-.92,0-1.62-.34-2.13-1.04-.54-.74-.81-1.8-.81-3.15,0-1.54.28-2.69.82-3.43.52-.7,1.2-1.04,2.09-1.04s1.6.35,2.12,1.06c.55.75.83,1.81.83,3.13,0,1.51-.27,2.66-.81,3.41-.51.71-1.2,1.06-2.12,1.06,0,0,.01,0,.01,0ZM306.46,110.4c-1.77,0-3.22.61-4.31,1.81-.84-1.2-2.18-1.81-3.98-1.81-1.46,0-2.69.39-3.68,1.15l-.06-.89h-3.99v15.26h4.2v-10.71c.45-.8,1.18-1.19,2.23-1.19,1.4,0,2.03.63,2.07,2.02v9.89h4.2v-10.21c.15-.51.41-.91.78-1.23.37-.31.85-.47,1.46-.47.77,0,1.3.16,1.6.47.3.32.46.88.46,1.65v9.78h4.2v-9.88c-.02-1.81-.46-3.22-1.31-4.17-.86-.98-2.17-1.47-3.89-1.47h.02,0ZM322.03,110.4c-1.35,0-2.5.38-3.43,1.12l-.08-.85h-3.91v20.75h4.2v-6.16c.9.63,1.99.94,3.26.94,1.84,0,3.33-.73,4.43-2.17,1.07-1.4,1.61-3.28,1.61-5.58v-.2c0-2.4-.53-4.32-1.59-5.7-1.08-1.42-2.59-2.14-4.49-2.14h0ZM323.92,118.16c0,1.56-.26,2.72-.77,3.45-.48.69-1.13,1.02-1.98,1.02-1.08,0-1.85-.42-2.35-1.29v-6.07c.49-.84,1.25-1.25,2.32-1.25.89,0,1.55.34,2.02,1.03.51.75.76,1.79.76,3.11ZM342.74,122.13v-6.44c-.03-1.66-.6-2.98-1.71-3.91-1.08-.91-2.53-1.38-4.32-1.38-1.16,0-2.23.21-3.18.62-.97.42-1.75,1.01-2.31,1.76-.58.77-.88,1.61-.88,2.5v.5h4.2v-.5c0-.41.16-.73.51-1,.38-.3.86-.44,1.48-.44.69,0,1.21.17,1.52.51.33.35.49.82.49,1.43v.44h-1.46c-2.2,0-3.93.44-5.14,1.31-1.26.91-1.9,2.22-1.9,3.91,0,1.35.51,2.49,1.52,3.4.99.9,2.29,1.36,3.84,1.36,1.3,0,2.46-.39,3.44-1.15.07.25.15.45.23.61l.14.27h4.07v-.72l-.05-.21c-.33-.69-.49-1.65-.49-2.86h0ZM335.99,122.62c-.56,0-.99-.14-1.31-.42-.3-.27-.45-.63-.45-1.1,0-.59.22-1.02.68-1.34.51-.35,1.31-.53,2.39-.53h1.23v2.06c-.23.39-.56.69-1,.93-.48.26-1,.4-1.54.4ZM353.49,110.4c-1.45,0-2.69.43-3.72,1.27l-.06-1h-3.99v15.26h4.2v-10.52c.54-.93,1.32-1.38,2.39-1.38.74,0,1.26.16,1.55.49.3.34.46.9.46,1.68v9.74h4.2v-9.93c-.07-4.62-2.78-5.59-5.04-5.59v-.02h0ZM369.48,110.66l-2.54,8.47-2.64-8.47h-4.53l5.18,14.68-.4,1.07c-.2.59-.47,1.01-.79,1.24-.32.23-.84.35-1.5.35l-1.14-.08v3.4l.36.1c.6.17,1.17.26,1.68.26,2.31,0,3.95-1.32,4.9-3.94l5.9-17.09h-4.49.01ZM164.23,122.13v-6.44c-.03-1.66-.6-2.98-1.71-3.91-1.08-.91-2.53-1.38-4.32-1.38-1.16,0-2.23.21-3.18.62-.97.42-1.75,1.01-2.32,1.76-.58.77-.88,1.61-.88,2.5v.5h4.2v-.5c0-.41.16-.73.51-1,.38-.3.86-.44,1.48-.44.69,0,1.21.17,1.52.51.33.35.49.82.49,1.43v.44h-1.46c-2.2,0-3.93.44-5.14,1.31-1.26.91-1.9,2.22-1.9,3.91,0,1.35.51,2.49,1.52,3.4.99.9,2.29,1.36,3.84,1.36,1.3,0,2.46-.39,3.44-1.15.07.25.15.45.23.61l.14.27h4.07v-.72l-.05-.21c-.33-.69-.49-1.65-.49-2.86h.01ZM157.48,122.62c-.56,0-.99-.14-1.31-.42-.3-.27-.45-.63-.45-1.1,0-.59.22-1.02.68-1.34.51-.35,1.31-.53,2.39-.53h1.23v2.06c-.23.39-.56.69-1,.93-.48.26-1,.4-1.54.4Z"/>
</svg>