<?xml version="1.0" encoding="UTF-8"?>
<svg id="Layer_1" xmlns="http://www.w3.org/2000/svg" version="1.1" viewBox="0 0 16.99 16.9">
  <!-- Generator: Adobe Illustrator 29.7.1, SVG Export Plug-In . SVG Version: 2.1.1 Build 8)  -->
  <defs>
    <style>
      .st0 {
        fill: #12284b;
      }
    </style>
  </defs>
  <path class="st0" d="M13.48,14.67v-1.64c0-.15.09-.27.22-.31v-.18c-.08-.09-.12-.2-.12-.33,0-.15.01-.28.03-.39-.1-.15-.2-.29-.3-.38-.66-.59-1.4-.64-3.21-1.33-.06-.02-.29-.1-.29-.24,0-.27.29-.22.41-.45.08-.16.17-1.16.2-1.51.05-.41.2-.24.26-.67.04-.3.09-.99.23-1.26.15-.28.39-.4.58-.62.27-.29.77-.99.88-1.36.09-.32.17-.9.09-1.22-.05-.18-.29-.16-.48-.02-.27.19-.57.42-.82.63-.08.07-.38.43-.47.41-.05-.03-.05-.06-.05-.11-.03-.38-.08-.76-.12-1.14-.04-.36-.08-.4-.28-.69-.15-.21-.25-.34-.36-.58-.13-.3-.32-.99-.59-1.14-.2-.12-.38-.07-.58.03-.16.08-.55.45-.88.45-.34,0-.57-.33-.62-.39-.08-.09-.09-.21-.24-.23-.16-.03-.42.3-.53.41-.15.14-.35.26-.47.44-.18.26-.21.57-.35.82-.14.24-.53.57-.6.82-.05.16-.02.38-.08.54-.04.04-.48-.15-.57-.17-.37-.11-.58-.14-.96-.04-.58.16-.9.66-.97,1.24-.07.62.18,1.06.69,1.48.45.37,1.55.69,1.55.69,0,0-.02.56.04.85.15.78.66,1.37.33,2.21-.11.29-.38.93-1.44,1.62-.9.58-1.9,1.09-2.7,1.81-.17.15-.36.32-.48.52-.31.52-.28,1.08-.32,1.66-.03.49-.07.99-.1,1.48,0,.12-.02.33,0,.44,0,.03.02.07.05.08h13.65v-1.92c-.13-.04-.22-.17-.22-.31h0ZM16.45,13.13l-2.77-4.07c.01-.06.02-.12.02-.18,0-.48-.39-.86-.86-.86s-.86.39-.86.86.36.84.82.86l1.3,1.51c-.14.13-.31.4-.31.96,0,.1.05.18.12.25v.44h-.09c-.07,0-.13.06-.13.13v1.64c0,.07.06.13.13.13h.09v2.1h.57v-.17c.26-.16.74-.43,1.31-.67.73-.3,1.07-.67,1.17-1.15.11-.5.05-1.1-.49-1.78h0ZM16.63,14.84c-.09.39-.31.71-.95.98-.5.2-.92.44-1.21.6v-1.62h.08c.07,0,.13-.06.13-.13v-1.64c0-.07-.06-.13-.13-.13h-.08v-.42s.06-.05.08-.09c.1-.15.2-.23.29-.27l1.17,1.36c.5.54.71.96.62,1.36h0Z"/>
</svg>